<svg xmlns="http://www.w3.org/2000/svg" width="106.036" height="81.749" viewBox="0 0 106.036 81.749"><g transform="translate(-89.97 -87.613)"><path d="M170.1,190.87h-8.03c-4.823,0-6.927,3.329-7.615,6.27-1.829,7.836-3.126,13.445-3.126,13.445h5.81l1.264-5.517h5.986l1.252-5.37h-5.986l.257-1.094c.52-2.277,1.566-2.277,3.114-2.277h5.8Z" transform="translate(-43.022 -72.398)" fill="#fff"/><path d="M234.509,171.34h-5.792l-1.461,6.279-5.352-.033c-8.29.114-10.9,7.836-11.016,11.356s1.59,7.949,6.7,7.949h10.995l1.264-5.376h-.018ZM219.33,191.522c-2.259,0-2.6-2.116-2.6-3.03,0-4.327,4.184-5.577,5.433-5.577h3.858l-1.411,6.067,5,2.531Z" transform="translate(-84.777 -58.705)" fill="#fff"/><path d="M292.707,192.61H281.393l-1.246,5.376L275.29,218.87h5.8l1.629-7.065H288.6c6.24,0,10.579-5.756,10.579-11.461S295.732,192.61,292.707,192.61Zm-4.647,13.927h-4.13l1.154-5.006L280.43,198c1.521,0,8.727.009,10.553.009a2.44,2.44,0,0,1,2.534,2.534C293.52,205.464,289.668,206.537,288.06,206.537Z" transform="translate(-129.936 -73.618)" fill="#fff"/><path d="M358.566,205.09h5.843l-3.6,15.466h-5.8Z" transform="translate(-185.832 -82.369)" fill="#fff"/><ellipse cx="3.616" cy="3.335" rx="3.616" ry="3.335" transform="matrix(0.721, -0.693, 0.693, 0.721, 171.968, 117.515)" fill="#fff"/><path d="M205.261,105.926c-5.412-17.02-33.427-23.3-62.574-14.031-17.2,5.472-30.949,15.137-38.217,25.642,7.731-7.343,18.627-13.747,31.442-17.824,29.144-9.27,57.159-2.989,62.574,14.031,2.218,6.975.3,14.668-4.752,21.96C203.588,126.344,208.294,115.462,205.261,105.926Z" transform="translate(-10.166)" fill="#ff4501"/><path d="M161.794,228.608c-29.144,9.27-57.159,2.989-62.574-14.031-2.474-7.779.2-16.455,6.623-24.467-12.157,9.976-18.326,22.22-14.961,32.805,5.412,17.02,33.427,23.3,62.574,14.031,15.824-5.033,28.723-13.616,36.346-23.134A84.975,84.975,0,0,1,161.794,228.608Z" transform="translate(0 -71.865)" fill="#ff4501"/></g></svg>